<svg width="167" height="166" viewBox="0 0 167 166" fill="none" xmlns="http://www.w3.org/2000/svg">
<g clip-path="url(#clip0_19_2)">
<path fill-rule="evenodd" clip-rule="evenodd" d="M165.266 82.2777C165.266 127.718 128.365 164.555 82.845 164.555C39.6584 164.555 4.22955 131.398 0.710938 89.1937H82.2519L54.5632 138.134L129.917 72.4558C91.5597 72.4558 91.1414 72.3213 91.0324 72.4495C91.0306 72.4516 91.029 72.4537 91.0273 72.4558L115.223 26.9012L56.0497 75.3615H0.710938C4.22955 33.1572 39.6584 0 82.845 0C128.365 0 165.266 36.8369 165.266 82.2777Z" fill="#0052FF"/>
<path fill-rule="evenodd" clip-rule="evenodd" d="M165.266 82.2777C165.266 127.718 128.365 164.555 82.845 164.555C39.6584 164.555 4.22955 131.398 0.710938 89.1937H82.2519L54.5632 138.134L129.917 72.4558C91.5597 72.4558 91.1414 72.3213 91.0324 72.4495C91.0306 72.4516 91.029 72.4537 91.0273 72.4558L115.223 26.9012L56.0497 75.3615H0.710938C4.22955 33.1572 39.6584 0 82.845 0C128.365 0 165.266 36.8369 165.266 82.2777Z" fill="#0052FF"/>
</g>
<defs>
<clipPath id="clip0_19_2">
<rect width="166" height="166" fill="white" transform="translate(0.710938)"/>
</clipPath>
</defs>
</svg>
