<svg width="5182" height="1200" viewBox="0 0 5182 1200" fill="none" xmlns="http://www.w3.org/2000/svg">
<path fill-rule="evenodd" clip-rule="evenodd" d="M1200 600C1200 931.37 930.901 1200 598.953 1200C284.02 1200 25.6591 958.204 4.31485e-06 650.435H594.625L392.708 1007.32L942.218 528.375C662.5 528.375 659.45 527.394 658.655 528.33C658.642 528.344 658.63 528.36 658.618 528.375L835.065 196.174L403.548 549.564H0C25.6591 241.795 284.02 0 598.953 0C930.901 0 1200 268.629 1200 600Z" fill="#9E9E9E"/>
<path d="M1281 867.423V332.316H1529.66C1575.35 332.316 1613.45 338.151 1643.98 349.822C1674.51 361.492 1697.45 377.692 1712.82 398.42C1728.18 418.975 1735.86 442.664 1735.86 469.489C1735.86 490.392 1731.01 508.769 1721.31 524.62C1711.6 540.297 1698.26 553.187 1681.28 563.29C1664.5 573.219 1645.3 580.273 1623.66 584.454V589.679C1647.32 590.55 1669.45 596.298 1690.07 606.924C1710.9 617.549 1727.78 632.443 1740.72 651.603C1753.65 670.59 1760.12 693.234 1760.12 719.537C1760.12 747.93 1751.94 773.274 1735.56 795.57C1719.39 817.692 1695.43 835.198 1663.69 848.088C1631.95 860.978 1592.83 867.423 1546.34 867.423H1281ZM1412.3 774.929H1519.35C1555.94 774.929 1582.62 768.919 1599.4 756.9C1616.18 744.707 1624.57 728.507 1624.57 708.302C1624.57 693.496 1620.43 680.431 1612.14 669.109C1603.85 657.787 1592.03 648.903 1576.66 642.458C1561.5 636.013 1543.41 632.791 1522.38 632.791H1412.3V774.929ZM1412.3 556.235H1509.64C1527.64 556.235 1543.61 553.535 1557.56 548.135C1571.71 542.561 1582.83 534.723 1590.91 524.62C1599.2 514.517 1603.35 502.411 1603.35 488.302C1603.35 468.967 1595.36 453.377 1579.39 441.532C1563.62 429.687 1541.18 423.765 1512.07 423.765H1412.3V556.235Z" fill="#0052FF"/>
<path d="M1858.67 867.423H1717.97L1932.36 332.316H2101.57L2315.66 867.423H2174.96L2019.39 454.596H2014.54L1858.67 867.423ZM1849.88 657.09H2182.23V745.404H1849.88V657.09Z" fill="#0052FF"/>
<path d="M2619.2 486.211C2616.78 465.135 2606.36 448.761 2587.97 437.09C2569.57 425.42 2544.6 419.584 2513.07 419.584C2491.64 419.584 2473.54 422.197 2458.79 427.423C2444.03 432.474 2432.71 439.529 2424.82 448.587C2417.14 457.645 2413.3 467.922 2413.3 479.418C2412.9 488.998 2415.22 497.359 2420.27 504.501C2425.53 511.643 2432.71 517.827 2441.81 523.052C2450.9 528.104 2461.41 532.546 2473.34 536.378C2485.27 540.036 2498.01 543.171 2511.55 545.784L2567.35 557.28C2594.44 562.506 2619.3 569.473 2641.95 578.183C2664.59 586.892 2684.2 597.605 2700.77 610.321C2717.35 623.036 2730.19 638.017 2739.29 655.261C2748.59 672.506 2753.34 692.276 2753.54 714.572C2753.34 747.32 2743.63 775.713 2724.43 799.751C2705.42 823.614 2677.93 842.165 2641.95 855.404C2606.16 868.468 2563 875 2512.46 875C2462.32 875 2418.66 868.381 2381.46 855.143C2344.46 841.904 2315.56 822.308 2294.73 796.354C2274.11 770.226 2263.3 737.914 2262.29 699.418H2389.34C2390.76 717.359 2396.72 732.34 2407.24 744.359C2417.95 756.203 2432.2 765.174 2449.99 771.271C2467.99 777.193 2488.3 780.154 2510.94 780.154C2533.18 780.154 2552.49 777.367 2568.86 771.793C2585.44 766.219 2598.28 758.468 2607.38 748.539C2616.47 738.61 2621.02 727.201 2621.02 714.311C2621.02 702.292 2616.88 692.189 2608.59 684.002C2600.5 675.816 2588.57 668.848 2572.81 663.1C2557.24 657.352 2538.14 652.126 2515.49 647.423L2447.87 632.791C2395.51 621.817 2354.17 604.66 2323.84 581.318C2293.52 557.977 2278.46 526.536 2278.66 486.995C2278.46 454.596 2288.47 426.291 2308.68 402.078C2329.1 377.866 2357.1 358.967 2392.68 345.38C2428.26 331.793 2468.69 325 2513.98 325C2560.07 325 2600.3 331.793 2634.67 345.38C2669.24 358.967 2696.12 377.866 2715.33 402.078C2734.53 426.291 2744.44 454.335 2745.05 486.211H2619.2Z" fill="#0052FF"/>
<path d="M2747.93 867.423V332.316H3166.4V425.594H2879.23V553.1H3144.87V646.378H2879.23V774.145H3167.61V867.423H2747.93Z" fill="#0052FF"/>
<path d="M3237.92 867.423V332.316H3486.58C3532.27 332.316 3570.38 338.151 3600.9 349.822C3631.43 361.492 3654.38 377.692 3669.74 398.42C3685.1 418.975 3692.79 442.664 3692.79 469.489C3692.79 490.392 3687.93 508.769 3678.23 524.62C3668.53 540.297 3655.18 553.187 3638.2 563.29C3621.42 573.219 3602.22 580.273 3580.59 584.454V589.679C3604.24 590.55 3626.38 596.298 3647 606.924C3667.82 617.549 3684.7 632.443 3697.64 651.603C3710.58 670.59 3717.05 693.234 3717.05 719.537C3717.05 747.93 3708.86 773.274 3692.48 795.57C3676.31 817.692 3652.35 835.198 3620.61 848.088C3588.88 860.978 3549.76 867.423 3503.26 867.423H3237.92ZM3369.23 774.929H3476.27C3512.86 774.929 3539.55 768.919 3556.33 756.9C3573.11 744.707 3581.5 728.507 3581.5 708.302C3581.5 693.496 3577.35 680.431 3569.06 669.109C3560.78 657.787 3548.95 648.903 3533.58 642.458C3518.42 636.013 3500.33 632.791 3479.3 632.791H3369.23V774.929ZM3369.23 556.235H3466.57C3484.56 556.235 3500.53 553.535 3514.48 548.135C3528.63 542.561 3539.75 534.723 3547.84 524.62C3556.13 514.517 3560.27 502.411 3560.27 488.302C3560.27 468.967 3552.28 453.377 3536.31 441.532C3520.54 429.687 3498.11 423.765 3468.99 423.765H3369.23V556.235Z" fill="#423F3F"/>
<path d="M4092.15 332.316H4223.46V679.822C4223.46 718.84 4212.64 752.981 4191.01 782.245C4169.58 811.508 4139.56 834.327 4100.95 850.701C4062.33 866.9 4017.35 875 3966 875C3914.45 875 3869.37 866.9 3830.76 850.701C3792.15 834.327 3762.12 811.508 3740.7 782.245C3719.27 752.981 3708.55 718.84 3708.55 679.822V332.316H3839.86V670.154C3839.86 690.534 3845.01 708.65 3855.32 724.501C3865.83 740.352 3880.59 752.807 3899.59 761.865C3918.6 770.922 3940.73 775.451 3966 775.451C3991.48 775.451 4013.61 770.922 4032.41 761.865C4051.42 752.807 4066.07 740.352 4076.38 724.501C4086.9 708.65 4092.15 690.534 4092.15 670.154V332.316Z" fill="#423F3F"/>
<path d="M4230.88 867.423V800.273L4540.8 425.594H4230.28V332.316H4705.76V399.466L4395.54 774.145H4706.37V867.423H4230.88Z" fill="#423F3F"/>
<path d="M4706.52 867.423V800.273L5016.43 425.594H4705.91V332.316H5181.39V399.466L4871.18 774.145H5182V867.423H4706.52Z" fill="#423F3F"/>
</svg>
