<svg width="5182" height="1190" viewBox="0 0 5182 1190" fill="none" xmlns="http://www.w3.org/2000/svg">
<path d="M1189.56 594.778C1189.56 923.265 922.8 1189.56 593.741 1189.56C281.548 1189.56 25.4358 949.865 4.2773e-06 644.774H589.453L389.294 998.556L934.022 523.777C656.738 523.777 653.714 522.804 652.926 523.732C652.914 523.746 652.902 523.761 652.889 523.777L827.801 194.467L400.039 544.782H0C25.4358 239.691 281.548 0 593.741 0C922.8 0 1189.56 266.291 1189.56 594.778Z" fill="#0052FF"/>
<path d="M1281 862.423V327.316H1529.66C1575.35 327.316 1613.45 333.151 1643.98 344.822C1674.51 356.492 1697.45 372.692 1712.82 393.42C1728.18 413.975 1735.86 437.664 1735.86 464.489C1735.86 485.392 1731.01 503.769 1721.31 519.62C1711.6 535.297 1698.26 548.187 1681.28 558.29C1664.5 568.219 1645.3 575.273 1623.66 579.454V584.679C1647.32 585.55 1669.45 591.298 1690.07 601.924C1710.9 612.549 1727.78 627.443 1740.72 646.603C1753.65 665.59 1760.12 688.234 1760.12 714.537C1760.12 742.93 1751.94 768.274 1735.56 790.57C1719.39 812.692 1695.43 830.198 1663.69 843.088C1631.95 855.978 1592.83 862.423 1546.34 862.423H1281ZM1412.3 769.929H1519.35C1555.94 769.929 1582.62 763.919 1599.4 751.9C1616.18 739.707 1624.57 723.508 1624.57 703.302C1624.57 688.496 1620.43 675.431 1612.14 664.109C1603.85 652.787 1592.03 643.903 1576.66 637.458C1561.5 631.013 1543.41 627.791 1522.38 627.791H1412.3V769.929ZM1412.3 551.235H1509.64C1527.64 551.235 1543.61 548.535 1557.56 543.135C1571.71 537.561 1582.83 529.723 1590.91 519.62C1599.2 509.517 1603.35 497.411 1603.35 483.302C1603.35 463.967 1595.36 448.377 1579.39 436.532C1563.62 424.687 1541.18 418.765 1512.07 418.765H1412.3V551.235Z" fill="#0052FF"/>
<path d="M1858.67 862.423H1717.97L1932.36 327.316H2101.57L2315.66 862.423H2174.96L2019.39 449.596H2014.54L1858.67 862.423ZM1849.88 652.09H2182.23V740.404H1849.88V652.09Z" fill="#0052FF"/>
<path d="M2619.2 481.211C2616.78 460.135 2606.36 443.761 2587.97 432.09C2569.57 420.42 2544.6 414.584 2513.07 414.584C2491.64 414.584 2473.54 417.197 2458.79 422.423C2444.03 427.474 2432.71 434.529 2424.82 443.587C2417.14 452.645 2413.3 462.922 2413.3 474.418C2412.9 483.998 2415.22 492.359 2420.27 499.501C2425.53 506.643 2432.71 512.827 2441.81 518.052C2450.9 523.104 2461.41 527.546 2473.34 531.378C2485.27 535.036 2498.01 538.171 2511.55 540.784L2567.35 552.28C2594.44 557.506 2619.3 564.473 2641.95 573.183C2664.59 581.892 2684.2 592.605 2700.77 605.321C2717.35 618.036 2730.19 633.017 2739.29 650.261C2748.59 667.506 2753.34 687.276 2753.54 709.572C2753.34 742.32 2743.63 770.713 2724.43 794.751C2705.42 818.614 2677.93 837.165 2641.95 850.404C2606.16 863.468 2563 870 2512.46 870C2462.32 870 2418.66 863.381 2381.46 850.142C2344.46 836.904 2315.56 817.308 2294.73 791.354C2274.11 765.226 2263.3 732.914 2262.29 694.418H2389.34C2390.76 712.359 2396.72 727.34 2407.24 739.359C2417.95 751.203 2432.2 760.174 2449.99 766.271C2467.99 772.193 2488.3 775.154 2510.94 775.154C2533.18 775.154 2552.49 772.367 2568.86 766.793C2585.44 761.219 2598.28 753.468 2607.38 743.539C2616.47 733.61 2621.02 722.201 2621.02 709.311C2621.02 697.292 2616.88 687.189 2608.59 679.002C2600.5 670.816 2588.57 663.848 2572.81 658.1C2557.24 652.352 2538.14 647.126 2515.49 642.423L2447.87 627.791C2395.51 616.817 2354.17 599.66 2323.84 576.318C2293.52 552.977 2278.46 521.536 2278.66 481.995C2278.46 449.596 2288.47 421.291 2308.68 397.078C2329.1 372.866 2357.1 353.967 2392.68 340.38C2428.26 326.793 2468.69 320 2513.98 320C2560.07 320 2600.3 326.793 2634.67 340.38C2669.24 353.967 2696.12 372.866 2715.33 397.078C2734.53 421.291 2744.44 449.335 2745.05 481.211H2619.2Z" fill="#0052FF"/>
<path d="M2747.93 862.423V327.316H3166.4V420.594H2879.23V548.1H3144.87V641.378H2879.23V769.145H3167.61V862.423H2747.93Z" fill="#0052FF"/>
<path d="M3237.92 862.423V327.316H3486.58C3532.27 327.316 3570.38 333.151 3600.9 344.822C3631.43 356.492 3654.38 372.692 3669.74 393.42C3685.1 413.975 3692.79 437.664 3692.79 464.489C3692.79 485.392 3687.93 503.769 3678.23 519.62C3668.53 535.297 3655.18 548.187 3638.2 558.29C3621.42 568.219 3602.22 575.273 3580.59 579.454V584.679C3604.24 585.55 3626.38 591.298 3647 601.924C3667.82 612.549 3684.7 627.443 3697.64 646.603C3710.58 665.59 3717.05 688.234 3717.05 714.537C3717.05 742.93 3708.86 768.274 3692.48 790.57C3676.31 812.692 3652.35 830.198 3620.61 843.088C3588.88 855.978 3549.76 862.423 3503.26 862.423H3237.92ZM3369.23 769.929H3476.27C3512.86 769.929 3539.55 763.919 3556.33 751.9C3573.11 739.707 3581.5 723.508 3581.5 703.302C3581.5 688.496 3577.35 675.431 3569.06 664.109C3560.77 652.787 3548.95 643.903 3533.58 637.458C3518.42 631.013 3500.33 627.791 3479.3 627.791H3369.23V769.929ZM3369.23 551.235H3466.57C3484.56 551.235 3500.53 548.535 3514.48 543.135C3528.63 537.561 3539.75 529.723 3547.84 519.62C3556.13 509.517 3560.27 497.411 3560.27 483.302C3560.27 463.967 3552.28 448.377 3536.31 436.532C3520.54 424.687 3498.11 418.765 3468.99 418.765H3369.23V551.235Z" fill="black"/>
<path d="M4092.15 327.316H4223.46V674.822C4223.46 713.84 4212.64 747.981 4191.01 777.245C4169.58 806.508 4139.56 829.327 4100.95 845.701C4062.33 861.9 4017.35 870 3966 870C3914.45 870 3869.37 861.9 3830.76 845.701C3792.15 829.327 3762.13 806.508 3740.7 777.245C3719.27 747.981 3708.55 713.84 3708.55 674.822V327.316H3839.86V665.154C3839.86 685.534 3845.01 703.65 3855.32 719.501C3865.83 735.352 3880.59 747.807 3899.59 756.865C3918.6 765.922 3940.73 770.451 3966 770.451C3991.48 770.451 4013.61 765.922 4032.41 756.865C4051.42 747.807 4066.07 735.352 4076.38 719.501C4086.9 703.65 4092.15 685.534 4092.15 665.154V327.316Z" fill="black"/>
<path d="M4230.88 862.423V795.273L4540.8 420.594H4230.28V327.316H4705.76V394.466L4395.54 769.145H4706.37V862.423H4230.88Z" fill="black"/>
<path d="M4706.52 862.423V795.273L5016.43 420.594H4705.91V327.316H5181.39V394.466L4871.18 769.145H5182V862.423H4706.52Z" fill="black"/>
</svg>
