<svg width="5172" height="1200" viewBox="0 0 5172 1200" fill="none" xmlns="http://www.w3.org/2000/svg">
<path fill-rule="evenodd" clip-rule="evenodd" d="M1200 600C1200 931.37 930.901 1200 598.953 1200C284.02 1200 25.6591 958.204 4.31485e-06 650.435H594.625L392.708 1007.32L942.218 528.375C662.5 528.375 659.45 527.394 658.655 528.33C658.642 528.344 658.63 528.36 658.618 528.375L835.065 196.174L403.548 549.564H0C25.6591 241.795 284.02 0 598.953 0C930.901 0 1200 268.629 1200 600Z" fill="white"/>
<path d="M1271 867.423V332.316H1519.66C1565.35 332.316 1603.45 338.151 1633.98 349.822C1664.51 361.492 1687.45 377.692 1702.82 398.42C1718.18 418.975 1725.86 442.664 1725.86 469.489C1725.86 490.392 1721.01 508.769 1711.31 524.62C1701.6 540.297 1688.26 553.187 1671.28 563.29C1654.5 573.219 1635.3 580.273 1613.66 584.454V589.679C1637.32 590.55 1659.45 596.298 1680.07 606.924C1700.9 617.549 1717.78 632.443 1730.72 651.603C1743.65 670.59 1750.12 693.234 1750.12 719.537C1750.12 747.93 1741.94 773.274 1725.56 795.57C1709.39 817.692 1685.43 835.198 1653.69 848.088C1621.95 860.978 1582.83 867.423 1536.34 867.423H1271ZM1402.3 774.929H1509.35C1545.94 774.929 1572.62 768.919 1589.4 756.9C1606.18 744.707 1614.57 728.508 1614.57 708.302C1614.57 693.496 1610.43 680.431 1602.14 669.109C1593.85 657.787 1582.03 648.903 1566.66 642.458C1551.5 636.013 1533.41 632.791 1512.38 632.791H1402.3V774.929ZM1402.3 556.235H1499.64C1517.64 556.235 1533.61 553.535 1547.56 548.135C1561.71 542.561 1572.83 534.723 1580.91 524.62C1589.2 514.517 1593.35 502.411 1593.35 488.302C1593.35 468.967 1585.36 453.377 1569.39 441.532C1553.62 429.687 1531.18 423.765 1502.07 423.765H1402.3V556.235Z" fill="white" fill-opacity="0.56"/>
<path d="M1848.67 867.423H1707.97L1922.36 332.316H2091.57L2305.66 867.423H2164.96L2009.39 454.596H2004.54L1848.67 867.423ZM1839.88 657.09H2172.23V745.404H1839.88V657.09Z" fill="white" fill-opacity="0.56"/>
<path d="M2609.2 486.211C2606.78 465.135 2596.36 448.761 2577.97 437.09C2559.57 425.42 2534.6 419.584 2503.07 419.584C2481.64 419.584 2463.54 422.197 2448.79 427.423C2434.03 432.474 2422.71 439.529 2414.82 448.587C2407.14 457.645 2403.3 467.922 2403.3 479.418C2402.9 488.998 2405.22 497.359 2410.27 504.501C2415.53 511.643 2422.71 517.827 2431.81 523.052C2440.9 528.104 2451.41 532.546 2463.34 536.378C2475.27 540.036 2488.01 543.171 2501.55 545.784L2557.35 557.28C2584.44 562.506 2609.3 569.473 2631.95 578.183C2654.59 586.892 2674.2 597.605 2690.77 610.321C2707.35 623.036 2720.19 638.017 2729.29 655.261C2738.59 672.506 2743.34 692.276 2743.54 714.572C2743.34 747.32 2733.63 775.713 2714.43 799.751C2695.42 823.614 2667.93 842.165 2631.95 855.404C2596.16 868.468 2553 875 2502.46 875C2452.32 875 2408.66 868.381 2371.46 855.142C2334.46 841.904 2305.56 822.308 2284.73 796.354C2264.11 770.226 2253.3 737.914 2252.29 699.418H2379.34C2380.76 717.359 2386.72 732.34 2397.24 744.359C2407.95 756.203 2422.2 765.174 2439.99 771.271C2457.99 777.193 2478.3 780.154 2500.94 780.154C2523.18 780.154 2542.49 777.367 2558.86 771.793C2575.44 766.219 2588.28 758.468 2597.38 748.539C2606.47 738.61 2611.02 727.201 2611.02 714.311C2611.02 702.292 2606.88 692.189 2598.59 684.002C2590.5 675.816 2578.57 668.848 2562.81 663.1C2547.24 657.352 2528.14 652.126 2505.49 647.423L2437.87 632.791C2385.51 621.817 2344.17 604.66 2313.84 581.318C2283.52 557.977 2268.46 526.536 2268.66 486.995C2268.46 454.596 2278.47 426.291 2298.68 402.078C2319.1 377.866 2347.1 358.967 2382.68 345.38C2418.26 331.793 2458.69 325 2503.98 325C2550.07 325 2590.3 331.793 2624.67 345.38C2659.24 358.967 2686.12 377.866 2705.33 402.078C2724.53 426.291 2734.44 454.335 2735.05 486.211H2609.2Z" fill="white" fill-opacity="0.56"/>
<path d="M2737.93 867.423V332.316H3156.4V425.594H2869.23V553.1H3134.87V646.378H2869.23V774.145H3157.61V867.423H2737.93Z" fill="white" fill-opacity="0.56"/>
<path d="M3227.92 867.423V332.316H3476.58C3522.27 332.316 3560.38 338.151 3590.9 349.822C3621.43 361.492 3644.38 377.692 3659.74 398.42C3675.1 418.975 3682.79 442.664 3682.79 469.489C3682.79 490.392 3677.93 508.769 3668.23 524.62C3658.53 540.297 3645.18 553.187 3628.2 563.29C3611.42 573.219 3592.22 580.273 3570.59 584.454V589.679C3594.24 590.55 3616.38 596.298 3637 606.924C3657.82 617.549 3674.7 632.443 3687.64 651.603C3700.58 670.59 3707.05 693.234 3707.05 719.537C3707.05 747.93 3698.86 773.274 3682.48 795.57C3666.31 817.692 3642.35 835.198 3610.61 848.088C3578.88 860.978 3539.76 867.423 3493.26 867.423H3227.92ZM3359.23 774.929H3466.27C3502.86 774.929 3529.55 768.919 3546.33 756.9C3563.11 744.707 3571.5 728.508 3571.5 708.302C3571.5 693.496 3567.35 680.431 3559.06 669.109C3550.77 657.787 3538.95 648.903 3523.58 642.458C3508.42 636.013 3490.33 632.791 3469.3 632.791H3359.23V774.929ZM3359.23 556.235H3456.57C3474.56 556.235 3490.53 553.535 3504.48 548.135C3518.63 542.561 3529.75 534.723 3537.84 524.62C3546.13 514.517 3550.27 502.411 3550.27 488.302C3550.27 468.967 3542.28 453.377 3526.31 441.532C3510.54 429.687 3488.11 423.765 3458.99 423.765H3359.23V556.235Z" fill="#E6E2E2" fill-opacity="0.63"/>
<path d="M4082.15 332.316H4213.46V679.822C4213.46 718.84 4202.64 752.981 4181.01 782.245C4159.58 811.508 4129.56 834.327 4090.95 850.701C4052.33 866.9 4007.35 875 3956 875C3904.45 875 3859.37 866.9 3820.76 850.701C3782.15 834.327 3752.13 811.508 3730.7 782.245C3709.27 752.981 3698.55 718.84 3698.55 679.822V332.316H3829.86V670.154C3829.86 690.534 3835.01 708.65 3845.32 724.501C3855.83 740.352 3870.59 752.807 3889.59 761.865C3908.6 770.922 3930.73 775.451 3956 775.451C3981.48 775.451 4003.61 770.922 4022.41 761.865C4041.42 752.807 4056.07 740.352 4066.38 724.501C4076.9 708.65 4082.15 690.534 4082.15 670.154V332.316Z" fill="#E6E2E2" fill-opacity="0.63"/>
<path d="M4220.88 867.423V800.273L4530.8 425.594H4220.28V332.316H4695.76V399.466L4385.54 774.145H4696.37V867.423H4220.88Z" fill="#E6E2E2" fill-opacity="0.63"/>
<path d="M4696.52 867.423V800.273L5006.43 425.594H4695.91V332.316H5171.39V399.466L4861.18 774.145H5172V867.423H4696.52Z" fill="#E6E2E2" fill-opacity="0.63"/>
</svg>
