<svg width="1200" height="1200" viewBox="0 0 1200 1200" fill="none" xmlns="http://www.w3.org/2000/svg">
<path fill-rule="evenodd" clip-rule="evenodd" d="M600 0C931.371 0 1200 268.629 1200 600C1200 931.371 931.371 1200 600 1200C268.629 1200 0 931.371 0 600C0 268.629 268.629 0 600 0ZM602.655 176.271C386.633 176.271 208.607 338.661 184.391 547.826H467.959L761.018 307.826L634.776 545.502C635.352 544.777 634.383 545.502 837.681 545.502L444.529 888.169L589.481 631.966H365.218L366.025 631.305H183.05V631.942C201.026 847.553 382.024 1016.95 602.655 1016.95C835.209 1016.95 1023.72 828.755 1023.72 596.608C1023.72 364.462 835.209 176.271 602.655 176.271Z" fill="#0052FF"/>
</svg>
